{
    "asset" : {
        "generator" : "Khronos glTF Blender I/O v0.9.36",
        "version" : "2.0"
    },
    "scene" : 0,
    "scenes" : [
        {
            "name" : "Scene",
            "nodes" : [
                0,
                2,
                3
            ]
        }
    ],
    "nodes" : [
        {
            "name" : "Light",
            "rotation" : [
                -0.008483790792524815,
                0.7957372665405273,
                -0.031477175652980804,
                0.6047639846801758
            ],
            "scale" : [
                0.6451165676116943,
                0.6229532957077026,
                0.6324308514595032
            ],
            "translation" : [
                0.21339130401611328,
                11.874754905700684,
                -0.6575832962989807
            ]
        },
        {
            "camera" : 0,
            "name" : "Camera_Orientation",
            "rotation" : [
                -0.7071067690849304,
                0,
                0,
                0.7071067690849304
            ]
        },
        {
            "children" : [
                1
            ],
            "name" : "Camera",
            "rotation" : [
                0.39492470026016235,
                0.5830483436584473,
                -0.3884463608264923,
                0.5943050384521484
            ],
            "scale" : [
                0.9906072616577148,
                0.9906072616577148,
                0.9906072616577148
            ],
            "translation" : [
                6.604340553283691,
                4.010060787200928,
                0.0963282585144043
            ]
        },
        {
            "mesh" : 0,
            "name" : "solanaceae",
            "rotation" : [
                0.28333723545074463,
                -0.3274780213832855,
                0.6874121427536011,
                -0.583046019077301
            ],
            "scale" : [
                0.15352177619934082,
                0.15260757505893707,
                0.15646862983703613
            ],
            "translation" : [
                -0.036178138107061386,
                1.6086591482162476,
                0.24745750427246094
            ]
        }
    ],
    "cameras" : [
        {
            "name" : "Camera",
            "perspective" : {
                "yfov" : 0.39959648408210363,
                "zfar" : 100,
                "znear" : 0.10000000149011612
            },
            "type" : "perspective"
        }
    ],
    "materials" : [
        {
            "doubleSided" : true,
            "emissiveFactor" : [
                1,
                1,
                1
            ],
            "emissiveTexture" : {
                "index" : 0,
                "texCoord" : 0
            },
            "name" : "Green",
            "pbrMetallicRoughness" : {}
        }
    ],
    "meshes" : [
        {
            "name" : "Plane.000",
            "primitives" : [
                {
                    "attributes" : {
                        "POSITION" : 0,
                        "NORMAL" : 1,
                        "TEXCOORD_0" : 2
                    },
                    "indices" : 3,
                    "material" : 0
                }
            ]
        }
    ],
    "textures" : [
        {
            "source" : 0
        }
    ],
    "images" : [
        {
            "bufferView" : 4,
            "mimeType" : "image/png",
            "name" : "solanaceaeleaf"
        }
    ],
    "accessors" : [
        {
            "bufferView" : 0,
            "componentType" : 5126,
            "count" : 4474,
            "max" : [
                10.499372482299805,
                8.580199241638184,
                3.3294053077697754
            ],
            "min" : [
                -6.262512683868408,
                -4.378322601318359,
                -5.354185104370117
            ],
            "type" : "VEC3"
        },
        {
            "bufferView" : 1,
            "componentType" : 5126,
            "count" : 4474,
            "type" : "VEC3"
        },
        {
            "bufferView" : 2,
            "componentType" : 5126,
            "count" : 4474,
            "type" : "VEC2"
        },
        {
            "bufferView" : 3,
            "componentType" : 5123,
            "count" : 10326,
            "type" : "SCALAR"
        }
    ],
    "bufferViews" : [
        {
            "buffer" : 0,
            "byteLength" : 53688,
            "byteOffset" : 0
        },
        {
            "buffer" : 0,
            "byteLength" : 53688,
            "byteOffset" : 53688
        },
        {
            "buffer" : 0,
            "byteLength" : 35792,
            "byteOffset" : 107376
        },
        {
            "buffer" : 0,
            "byteLength" : 20652,
            "byteOffset" : 143168
        },
        {
            "buffer" : 0,
            "byteLength" : 32083,
            "byteOffset" : 163820
        }
    ],
    "buffers" : [
        {
            "byteLength" : 195904,
            "uri" : "data:application/octet-stream;base64,"
        }
    ]
}
