{
    "asset" : {
        "generator" : "Khronos glTF Blender I/O v0.9.36",
        "version" : "2.0"
    },
    "scene" : 0,
    "scenes" : [
        {
            "name" : "Scene",
            "nodes" : [
                1,
                2,
                3
            ]
        }
    ],
    "nodes" : [
        {
            "camera" : 0,
            "name" : "Camera_Orientation",
            "rotation" : [
                -0.7071067690849304,
                0,
                0,
                0.7071067690849304
            ]
        },
        {
            "children" : [
                0
            ],
            "name" : "Camera",
            "rotation" : [
                0.39492470026016235,
                0.5830483436584473,
                -0.3884463608264923,
                0.5943050384521484
            ],
            "scale" : [
                0.9906072616577148,
                0.9906072616577148,
                0.9906072616577148
            ],
            "translation" : [
                6.604340553283691,
                4.072622299194336,
                0.0963282585144043
            ]
        },
        {
            "mesh" : 0,
            "name" : "testcrop",
            "rotation" : [
                0.23833324015140533,
                -0.8166082501411438,
                -0.28826257586479187,
                0.43960535526275635
            ],
            "scale" : [
                0.17408885061740875,
                0.17305219173431396,
                0.17743052542209625
            ],
            "translation" : [
                0.008316919207572937,
                1.1884617805480957,
                0.12179318070411682
            ]
        },
        {
            "name" : "Empty",
            "scale" : [
                2.872607707977295,
                2.872607707977295,
                2.872607707977295
            ],
            "translation" : [
                0.007403865456581116,
                0.003757968544960022,
                -0.005477726459503174
            ]
        }
    ],
    "cameras" : [
        {
            "name" : "Camera",
            "perspective" : {
                "yfov" : 0.39959648408210363,
                "zfar" : 100,
                "znear" : 0.10000000149011612
            },
            "type" : "perspective"
        }
    ],
    "materials" : [
        {
            "doubleSided" : true,
            "name" : "Green",
            "pbrMetallicRoughness" : {
                "baseColorFactor" : [
                    0.028757035732269287,
                    0.22341151535511017,
                    0.037482086569070816,
                    1
                ],
                "metallicFactor" : 0,
                "roughnessFactor" : 0.5
            }
        }
    ],
    "meshes" : [
        {
            "name" : "Plane.002",
            "primitives" : [
                {
                    "attributes" : {
                        "POSITION" : 0,
                        "NORMAL" : 1,
                        "TEXCOORD_0" : 2
                    },
                    "indices" : 3,
                    "material" : 0
                }
            ]
        }
    ],
    "accessors" : [
        {
            "bufferView" : 0,
            "componentType" : 5126,
            "count" : 3382,
            "max" : [
                4.232693195343018,
                5.769564151763916,
                3.81750750541687
            ],
            "min" : [
                -8.000996589660645,
                -5.741077899932861,
                -3.030282497406006
            ],
            "type" : "VEC3"
        },
        {
            "bufferView" : 1,
            "componentType" : 5126,
            "count" : 3382,
            "type" : "VEC3"
        },
        {
            "bufferView" : 2,
            "componentType" : 5126,
            "count" : 3382,
            "type" : "VEC2"
        },
        {
            "bufferView" : 3,
            "componentType" : 5123,
            "count" : 7176,
            "type" : "SCALAR"
        }
    ],
    "bufferViews" : [
        {
            "buffer" : 0,
            "byteLength" : 40584,
            "byteOffset" : 0
        },
        {
            "buffer" : 0,
            "byteLength" : 40584,
            "byteOffset" : 40584
        },
        {
            "buffer" : 0,
            "byteLength" : 27056,
            "byteOffset" : 81168
        },
        {
            "buffer" : 0,
            "byteLength" : 14352,
            "byteOffset" : 108224
        }
    ],
    "buffers" : [
        {
            "byteLength" : 122576,
            "uri" : "data:application/octet-stream;base64,"
        }
    ]
}
